<svg width="128" height="40" fill="none" xmlns="http://www.w3.org/2000/svg"><path d="M6.56 35.85v-.018c0-.444-.08-.855-.242-1.233a2.905 2.905 0 0 0-.693-1 3.083 3.083 0 0 0-1.062-.656 3.628 3.628 0 0 0-1.35-.243H.756V39h2.457c.492 0 .942-.081 1.35-.243a3.196 3.196 0 0 0 1.062-.666c.3-.282.53-.615.693-1 .162-.383.243-.797.243-1.241Zm-1.448.018c0 .282-.048.537-.144.765a1.726 1.726 0 0 1-.981.98 2.14 2.14 0 0 1-.774.136H2.142V33.95h1.07c.283 0 .54.048.775.144a1.708 1.708 0 0 1 .981.99c.096.234.144.489.144.765v.018ZM12.773 39v-1.233h-3.42v-1.323h2.97V35.21h-2.97v-1.278h3.375V32.7H7.976V39h4.797ZM22.391 35.84c0-.455-.066-.881-.198-1.277a3.142 3.142 0 0 0-.567-1.035 2.468 2.468 0 0 0-.882-.684 2.557 2.557 0 0 0-1.143-.252c-.42 0-.804.084-1.152.252a2.678 2.678 0 0 0-.882.693 3.255 3.255 0 0 0-.576 1.044 4.017 4.017 0 0 0-.198 1.278c0 .462.066.89.198 1.287.132.39.318.732.558 1.026.246.294.54.525.882.693.348.162.732.243 1.152.243.42 0 .801-.084 1.143-.252a2.65 2.65 0 0 0 .891-.693c.246-.294.435-.64.567-1.035.138-.396.207-.825.207-1.287Zm-1.422.019c0 .288-.033.555-.099.8a2 2 0 0 1-.27.63 1.38 1.38 0 0 1-.432.424 1.122 1.122 0 0 1-.567.144c-.21 0-.402-.051-.576-.153a1.38 1.38 0 0 1-.432-.423 2.146 2.146 0 0 1-.279-.64 3.084 3.084 0 0 1-.099-.8c0-.288.03-.555.09-.801.066-.246.16-.456.28-.63.12-.18.263-.318.431-.414a1.07 1.07 0 0 1 .567-.153c.21 0 .4.05.567.153.174.102.321.243.441.423s.213.393.28.639c.065.246.098.513.098.8ZM23.278 33.195l.288 1.134 1.098-.27v4.94h1.368v-6.344h-.945l-1.81.54ZM36.81 39l-2.7-6.345h-1.277L30.133 39h1.413l.576-1.413h2.664L35.362 39h1.449Zm-2.52-2.637h-1.673l.837-2.043.837 2.043ZM46.17 35.84c0-.455-.067-.881-.199-1.277a3.142 3.142 0 0 0-.567-1.035 2.468 2.468 0 0 0-.882-.684 2.557 2.557 0 0 0-1.143-.252c-.42 0-.804.084-1.152.252a2.678 2.678 0 0 0-.882.693 3.255 3.255 0 0 0-.576 1.044 4.017 4.017 0 0 0-.198 1.278c0 .462.066.89.198 1.287.132.39.318.732.558 1.026.246.294.54.525.882.693.348.162.732.243 1.152.243.42 0 .801-.084 1.143-.252a2.65 2.65 0 0 0 .891-.693c.246-.294.435-.64.567-1.035.138-.396.207-.825.207-1.287Zm-1.423.019c0 .288-.033.555-.099.8a2 2 0 0 1-.27.63 1.38 1.38 0 0 1-.432.424 1.122 1.122 0 0 1-.567.144c-.21 0-.402-.051-.576-.153a1.38 1.38 0 0 1-.432-.423 2.146 2.146 0 0 1-.279-.64 3.084 3.084 0 0 1-.099-.8c0-.288.03-.555.09-.801.066-.246.16-.456.28-.63.12-.18.263-.318.431-.414a1.07 1.07 0 0 1 .567-.153c.21 0 .4.05.567.153.174.102.321.243.441.423s.213.393.28.639c.065.246.098.513.098.8ZM50.575 32.655l-3.456 4.005.225.98h3.078V39h1.323v-1.36h.846v-1.124h-.846v-3.861h-1.17Zm-.153 3.86h-1.674l1.674-1.961v1.962ZM62.664 35.85v-.018c0-.444-.081-.855-.243-1.233a2.905 2.905 0 0 0-.693-1 3.083 3.083 0 0 0-1.062-.656 3.628 3.628 0 0 0-1.35-.243h-2.457V39h2.457c.492 0 .942-.081 1.35-.243a3.196 3.196 0 0 0 1.062-.666c.3-.282.53-.615.693-1 .162-.383.243-.797.243-1.241Zm-1.45.018c0 .282-.047.537-.143.765a1.726 1.726 0 0 1-.981.98 2.14 2.14 0 0 1-.774.136h-1.071V33.95h1.07c.283 0 .54.048.775.144a1.708 1.708 0 0 1 .981.99c.096.234.144.489.144.765v.018ZM68.876 39v-1.233h-3.42v-1.323h2.97V35.21h-2.97v-1.278h3.375V32.7h-4.752V39h4.797ZM78.972 35.85v-.018c0-.444-.081-.855-.243-1.233a2.905 2.905 0 0 0-.694-1 3.083 3.083 0 0 0-1.061-.656 3.628 3.628 0 0 0-1.35-.243h-2.457V39h2.457c.492 0 .942-.081 1.35-.243a3.196 3.196 0 0 0 1.061-.666c.3-.282.532-.615.694-1 .162-.383.243-.797.243-1.241Zm-1.45.018c0 .282-.047.537-.144.765a1.726 1.726 0 0 1-.98.98 2.14 2.14 0 0 1-.774.136h-1.072V33.95h1.072c.282 0 .54.048.773.144a1.708 1.708 0 0 1 .981.99c.097.234.144.489.144.765v.018ZM85.183 39v-1.233h-3.42v-1.323h2.97V35.21h-2.97v-1.278h3.375V32.7h-4.752V39h4.797ZM91.654 39v-1.215h-3.465l3.465-4.032V32.7h-5.14v1.215h3.358l-3.465 4.032V39h5.247ZM97.945 39v-1.233h-3.42v-1.323h2.97V35.21h-2.97v-1.278H97.9V32.7h-4.752V39h4.797ZM105.657 39v-6.3h-1.494l-1.656 2.664-1.656-2.664h-1.494V39h1.359v-4.086l1.755 2.664h.036l1.773-2.691V39h1.377ZM112.706 37.272v-.018c0-.42-.105-.747-.315-.981-.21-.24-.498-.43-.864-.567.114-.06.219-.132.315-.216a1.372 1.372 0 0 0 .441-.666 1.45 1.45 0 0 0 .072-.477v-.018c0-.498-.186-.894-.558-1.188-.366-.294-.873-.441-1.521-.441h-2.925V39h2.997c.354 0 .675-.036.963-.108.294-.072.543-.18.747-.324.21-.144.369-.324.477-.54.114-.216.171-.468.171-.756Zm-1.728-2.691c0 .234-.09.405-.27.513-.18.102-.423.153-.729.153h-1.278v-1.332h1.368c.294 0 .519.057.675.17a.543.543 0 0 1 .234.478v.018Zm.351 2.52c0 .234-.087.408-.261.522-.174.108-.414.162-.72.162h-1.647v-1.386h1.602c.36 0 .621.063.783.189.162.12.243.285.243.495v.018ZM119.471 39l-1.539-2.25c.402-.15.726-.384.972-.702.252-.324.378-.741.378-1.251v-.018c0-.654-.21-1.164-.63-1.53-.414-.366-.996-.55-1.746-.55h-2.88V39h1.386v-2.015h1.089l1.35 2.016h1.62Zm-1.593-4.131c0 .27-.093.486-.279.648-.18.162-.441.243-.783.243h-1.404v-1.81h1.377c.342 0 .609.076.801.226.192.15.288.375.288.675v.018ZM127.127 35.85v-.018c0-.45-.084-.87-.252-1.26a2.956 2.956 0 0 0-.693-1.026 3.185 3.185 0 0 0-1.053-.693 3.383 3.383 0 0 0-1.341-.261c-.486 0-.936.087-1.35.26a3.215 3.215 0 0 0-1.062.703 3.233 3.233 0 0 0-.693 1.035 3.15 3.15 0 0 0-.252 1.26v.018c0 .45.081.873.243 1.269.168.39.399.732.693 1.026.3.288.654.519 1.062.693.408.168.855.252 1.341.252s.933-.084 1.341-.252a3.279 3.279 0 0 0 1.062-.702c.3-.3.534-.645.702-1.035.168-.396.252-.82.252-1.27Zm-1.449.018c0 .27-.048.525-.144.765-.09.234-.219.44-.387.62-.162.18-.36.322-.594.424a1.894 1.894 0 0 1-.765.153c-.282 0-.54-.051-.774-.153a2.055 2.055 0 0 1-.603-.432c-.168-.18-.3-.39-.396-.63a2.16 2.16 0 0 1-.135-.765v-.018c0-.27.045-.522.135-.756.096-.24.225-.45.387-.63a1.82 1.82 0 0 1 .594-.423c.234-.102.492-.153.774-.153.276 0 .531.054.765.162.234.102.435.243.603.423.174.18.306.39.396.63.096.24.144.495.144.765v.018ZM6.945 23.026h7.294v-4.837h6.019V28H1V0h19.258v10.202h-6.02V5.169H6.946v17.857ZM28 23.026h7.297v-4.837h6.02V28H22.058V0h19.257v10.202h-6.019V5.169h-7.296v17.857ZM53.5 9.457 56.872 0h6.864l-5.745 14.064L64.13 28h-6.982l-3.61-9.372L49.934 28h-6.98l6.019-13.899L43.106 0h6.864l3.53 9.457ZM71.73 20.526V28h-6.04V0h18.637v20.473l-12.598.053ZM78.381 5.17h-6.75v10.218h6.75V5.169Z" fill="#000"/><path d="m100.04 20.063-.011 2.954h-7.336v-2.456l13.001-7.895V3.11L103.007 0H87.041v8.014h5.652L92.69 5.17h7.336l.003 5.15-12.988 7.857V28H105.699v-7.937h-5.659ZM121.338 20.063l-.007 2.954h-7.337v-2.456l12.999-7.895V3.11L124.308 0H108.34v8.014h5.654l-.002-2.845h7.336l.003 5.15-12.991 7.857V28H127.001v-7.937h-5.663Z" fill="#F3C61F"/></svg>